<?xml version="1.0" encoding="UTF-8"?>
<svg width="63px" height="62px" viewBox="0 0 63 62" version="1.1" xmlns="http://www.w3.org/2000/svg" xmlns:xlink="http://www.w3.org/1999/xlink">
    <title>Banners/BetaBigLeft</title>
    <g id="Förhandsgranskning" stroke="none" stroke-width="1" fill="none" fill-rule="evenodd">
        <g id="Förhandsgranska" transform="translate(-1377.000000, -117.000000)">
            <g id="Icons-/-Beta-/-Mobile" transform="translate(1377.000000, 117.000000)">
                <polyline id="Path-3" fill="#F0006C" transform="translate(31.500000, 31.000000) rotate(-270.000000) translate(-31.500000, -31.000000) " points="0.5 -0.5 0.5 62.5 62.5 -0.5"></polyline>
                <path d="M19.2094946,18.578452 L22.8928056,18.578452 C24.5712166,18.578452 25.7895304,18.8198189 26.5477835,19.3025599 C27.3060367,19.7853009 27.6851576,20.5530386 27.6851576,21.6057958 C27.6851576,22.3203616 27.5192079,22.9067331 27.1873035,23.364928 C26.8553991,23.8231228 26.4142157,24.0985811 25.8637401,24.191311 L25.8637401,24.2731311 C26.613898,24.4422268 27.1549211,24.7585947 27.4868255,25.2222443 C27.8187299,25.6858938 27.9846796,26.3022658 27.9846796,27.0713786 C27.9846796,28.1623187 27.5947652,29.0132392 26.8149248,29.6241657 C26.0350843,30.2350922 24.9759743,30.5405509 23.637563,30.5405509 L19.2094946,30.5405509 L19.2094946,18.578452 Z M21.7190032,23.3158359 L23.1761373,23.3158359 C23.8561365,23.3158359 24.348589,23.2094708 24.6535093,22.9967375 C24.9584296,22.7840042 25.1108875,22.4321813 25.1108875,21.9412582 C25.1108875,21.4830633 24.9449377,21.1544226 24.6130333,20.955326 C24.2811289,20.7562294 23.7562961,20.6566826 23.038519,20.6566826 L21.7190032,20.6566826 L21.7190032,23.3158359 Z M21.7190032,25.3286104 L21.7190032,28.4459563 L23.3542314,28.4459563 C24.0450243,28.4459563 24.5550162,28.3123181 24.8842222,28.0450378 C25.2134282,27.7777574 25.3780287,27.368661 25.3780287,26.8177362 C25.3780287,25.8249807 24.6764527,25.3286104 23.2732795,25.3286104 L21.7190032,25.3286104 Z M38.159361,30.5405509 L31.3432117,30.5405509 L31.3432117,18.578452 L38.159361,18.578452 L38.159361,20.6566826 L33.8527204,20.6566826 L33.8527204,23.2831079 L37.859839,23.2831079 L37.859839,25.3613384 L33.8527204,25.3613384 L33.8527204,28.4459563 L38.159361,28.4459563 L38.159361,30.5405509 Z M46.1888172,30.5405509 L43.6793086,30.5405509 L43.6793086,20.6894107 L40.4655185,20.6894107 L40.4655185,18.578452 L49.4026073,18.578452 L49.4026073,20.6894107 L46.1888172,20.6894107 L46.1888172,30.5405509 Z M59.463956,30.5405509 L58.605866,27.6932113 L54.2911302,27.6932113 L53.4330401,30.5405509 L50.729247,30.5405509 L54.9063646,18.52936 L57.9744412,18.52936 L62.1677492,30.5405509 L59.463956,30.5405509 Z M58.006822,25.5658887 C57.2134895,22.9858153 56.7669094,21.5267047 56.6670682,21.1885133 C56.567227,20.8503218 56.4957202,20.5830455 56.4525457,20.3866763 C56.2744506,21.084878 55.7644588,22.8112648 54.9225549,25.5658887 L58.006822,25.5658887 Z" id="Beta" fill="#FFFFFF" transform="translate(40.688622, 24.534955) rotate(44.000000) translate(-40.688622, -24.534955) "></path>
            </g>
        </g>
    </g>
</svg>