<?xml version="1.0" encoding="UTF-8"?>
<svg width="32px" height="26px" viewBox="0 0 32 26" version="1.1" xmlns="http://www.w3.org/2000/svg" xmlns:xlink="http://www.w3.org/1999/xlink">
    <!-- Generator: Sketch 64 (93537) - https://sketch.com -->
    <title>kontaka oss ikon</title>
    <desc>Created with Sketch.</desc>
    <g id="kontaka-oss-ikon" stroke="none" stroke-width="1" fill="none" fill-rule="evenodd">
        <g id="phone-laptop-light-1" fill="#FFFFFF" fill-rule="nonzero">
            <path d="M30.1146849,6.33993367 L20.6047844,6.33993367 C19.7294222,6.33993367 19.019801,7.04955491 19.019801,7.92491708 L19.019801,23.7747512 C19.019801,24.6501134 19.7294222,25.3597347 20.6047844,25.3597347 L30.1146849,25.3597347 C30.9900471,25.3597347 31.6996683,24.6501134 31.6996683,23.7747512 L31.6996683,7.92491708 C31.6996683,7.04955491 30.9900471,6.33993367 30.1146849,6.33993367 Z M30.1146849,23.7747512 L20.6047844,23.7747512 L20.6047844,7.92491708 L30.1146849,7.92491708 L30.1146849,23.7747512 Z M4.75495025,1.58498342 L23.7747512,1.58498342 L23.7747512,4.75495025 L25.3597347,4.75495025 L25.3597347,1.58498342 C25.3597347,0.709621247 24.6501134,0 23.7747512,0 L4.75495025,0 C3.87958808,0 3.16996683,0.709621247 3.16996683,1.58498342 L3.16996683,14.2648507 L0.792491708,14.2648507 C0.354810623,14.2648507 0,14.6196614 0,15.0573425 L0,15.8498342 C0.00380290108,17.5972423 1.41810798,19.0135391 3.16550907,19.019801 L17.4348176,19.019801 L17.4348176,17.4348176 L3.16550907,17.4348176 C2.29188827,17.4323605 1.58497996,16.7234584 1.58498342,15.8498342 L17.4348176,15.8498342 L17.4348176,14.2648507 L4.75495025,14.2648507 L4.75495025,1.58498342 Z" id="Shape"></path>
        </g>
    </g>
</svg>
